<?xml version="1.0" encoding="UTF-8" standalone="no"?>
<!-- Created with Inkscape (http://www.inkscape.org/) -->

<svg
   width="210mm"
   height="210mm"
   viewBox="0 0 210 210"
   version="1.1"
   id="svg8"
   sodipodi:docname="ic_lockmode_auto.svg"
   inkscape:version="0.92.3 (2405546, 2018-03-11)"
   inkscape:export-filename="ic_lockmode_semi.png"
   inkscape:export-xdpi="96"
   inkscape:export-ydpi="96"
   xmlns:inkscape="http://www.inkscape.org/namespaces/inkscape"
   xmlns:sodipodi="http://sodipodi.sourceforge.net/DTD/sodipodi-0.dtd"
   xmlns="http://www.w3.org/2000/svg"
   xmlns:svg="http://www.w3.org/2000/svg"
   xmlns:rdf="http://www.w3.org/1999/02/22-rdf-syntax-ns#"
   xmlns:cc="http://creativecommons.org/ns#"
   xmlns:dc="http://purl.org/dc/elements/1.1/">
  <defs
     id="defs2" />
  <sodipodi:namedview
     id="base"
     pagecolor="#ffffff"
     bordercolor="#666666"
     borderopacity="1.0"
     inkscape:pageopacity="0.0"
     inkscape:pageshadow="2"
     inkscape:zoom="0.125"
     inkscape:cx="377.41141"
     inkscape:cy="-957.7345"
     inkscape:document-units="mm"
     inkscape:current-layer="layer1"
     showgrid="false"
     inkscape:snap-bbox="true"
     inkscape:bbox-nodes="true"
     inkscape:snap-bbox-edge-midpoints="false"
     inkscape:snap-bbox-midpoints="true"
     inkscape:bbox-paths="true"
     inkscape:snap-smooth-nodes="true"
     inkscape:snap-intersection-paths="true"
     inkscape:object-paths="false"
     inkscape:snap-object-midpoints="true"
     inkscape:window-width="1920"
     inkscape:window-height="1009"
     inkscape:window-x="-8"
     inkscape:window-y="-8"
     inkscape:window-maximized="1"
     showguides="false"
     inkscape:snap-nodes="true"
     inkscape:lockguides="true"
     inkscape:showpageshadow="2"
     inkscape:pagecheckerboard="0"
     inkscape:deskcolor="#d1d1d1" />
  <metadata
     id="metadata5">
    <rdf:RDF>
      <cc:Work
         rdf:about="">
        <dc:format>image/svg+xml</dc:format>
        <dc:type
           rdf:resource="http://purl.org/dc/dcmitype/StillImage" />
        <dc:title />
      </cc:Work>
    </rdf:RDF>
  </metadata>
  <g
     inkscape:label="レイヤー 1"
     inkscape:groupmode="layer"
     id="layer1"
     transform="translate(0,-87)">
    <path
       style="font-size:271.473px;font-family:HGSSoeiKakugothicUB;-inkscape-font-specification:HGSSoeiKakugothicUB;stroke-width:0.339876;stroke-linecap:round"
       d="M 49.458775,294.66636 Q 35.673037,278.75974 34.612596,254.36959 h 27.571475 q 2.120883,22.26927 15.906621,26.51103 12.725297,4.24177 22.269268,0 10.60441,-5.3022 10.60441,-15.90662 0,-10.60441 -5.3022,-15.90662 -4.24177,-4.24176 -8.483533,-5.30221 L 69.607161,235.28164 Q 59.002747,232.10032 48.398334,221.49591 37.79392,210.89149 37.79392,191.80355 q 0,-22.26927 14.846179,-37.11545 11.664855,-11.66486 32.873683,-11.66486 23.329708,0 38.175888,16.96707 12.7253,14.84617 13.78574,38.17588 h -29.69236 q -2.12088,-21.20882 -14.846179,-25.45059 -5.302207,-2.12088 -13.785738,0 -11.664855,6.36265 -11.664855,18.02751 0,7.42308 4.241766,11.66485 4.241765,4.24177 8.483531,5.30221 l 23.329715,7.42309 q 15.90662,5.3022 25.45059,14.84618 12.72529,12.72529 12.72529,31.81324 0,22.26927 -12.72529,34.99456 -14.84618,14.84618 -39.236333,14.84618 -25.450593,0 -40.296772,-16.96706 z"
       id="text1"
       transform="scale(1.1816539,0.84627146)"
       aria-label="s" />
  </g>
</svg>
