<?xml version="1.0" encoding="UTF-8" standalone="no"?>
<svg
   xmlns:dc="http://purl.org/dc/elements/1.1/"
   xmlns:cc="http://creativecommons.org/ns#"
   xmlns:rdf="http://www.w3.org/1999/02/22-rdf-syntax-ns#"
   xmlns:svg="http://www.w3.org/2000/svg"
   xmlns="http://www.w3.org/2000/svg"
   xmlns:sodipodi="http://sodipodi.sourceforge.net/DTD/sodipodi-0.dtd"
   xmlns:inkscape="http://www.inkscape.org/namespaces/inkscape"
   height="48"
   width="48"
   version="1.1"
   id="svg4"
   sodipodi:docname="local_parking_FILL0_wght400_GRAD0_opsz48.svg"
   inkscape:version="0.92.3 (2405546, 2018-03-11)">
  <metadata
     id="metadata10">
    <rdf:RDF>
      <cc:Work
         rdf:about="">
        <dc:format>image/svg+xml</dc:format>
        <dc:type
           rdf:resource="http://purl.org/dc/dcmitype/StillImage" />
        <dc:title></dc:title>
      </cc:Work>
    </rdf:RDF>
  </metadata>
  <defs
     id="defs8" />
  <sodipodi:namedview
     pagecolor="#ffffff"
     bordercolor="#666666"
     borderopacity="1"
     objecttolerance="10"
     gridtolerance="10"
     guidetolerance="10"
     inkscape:pageopacity="0"
     inkscape:pageshadow="2"
     inkscape:window-width="1920"
     inkscape:window-height="1009"
     id="namedview6"
     showgrid="false"
     inkscape:snap-bbox="true"
     inkscape:bbox-nodes="true"
     inkscape:zoom="6.9532167"
     inkscape:cx="13.490786"
     inkscape:cy="9.811807"
     inkscape:window-x="-8"
     inkscape:window-y="-8"
     inkscape:window-maximized="1"
     inkscape:current-layer="svg4" />
  <path
     d="M 8.0859375 5.2578125 L 5.2578125 8.0859375 L 12 14.828125 L 12 42 L 18 42 L 18 29.199219 L 26.371094 29.199219 L 39.914062 42.742188 L 42.742188 39.914062 L 42.740234 39.912109 L 31.101562 28.273438 L 26.027344 23.199219 L 18 15.171875 L 12 9.171875 L 8.0859375 5.2578125 z M 14.484375 6 L 20.484375 12 L 26.400391 12 C 28.000391 12 29.333724 12.532943 30.400391 13.599609 C 31.467057 14.666276 32 15.999609 32 17.599609 C 32 19.199609 31.467057 20.532943 30.400391 21.599609 C 30.346787 21.653213 30.289326 21.699092 30.234375 21.75 L 34.484375 26 C 34.538605 25.947713 34.596778 25.903222 34.650391 25.849609 C 36.883724 23.616276 38 20.866276 38 17.599609 C 38 14.332943 36.883724 11.582943 34.650391 9.3496094 C 32.417057 7.116276 29.667057 6 26.400391 6 L 14.484375 6 z M 18 20.828125 L 20.371094 23.199219 L 18 23.199219 L 18 20.828125 z "
     id="path2" />
</svg>
