<svg id="vector" xmlns="http://www.w3.org/2000/svg" width="24" height="24" viewBox="0 0 210 210"><path fill="?android:colorPrimary" d="m113.314,60.627 l-13.322,26.229c0,0 -10.052,-0.037 -18.94,4.572 -12.269,6.364 -18.713,14.399 -21.128,20.09 -2.874,6.773 -0.166,11.11 -0.166,11.11 2.094,5.037 13.19,8.505 13.19,8.505 0,0 -8.83,0.186 -16.651,-4.285 -4.201,-2.402 -8.18,-4.682 -8.322,-14.046 -0.122,-8.064 3.647,-17.706 13.297,-26.878 12.451,-11.834 25.647,-16.776 32.419,-19.722 9.532,-4.147 19.622,-5.576 19.622,-5.576z" id="path_0"/><path fill="?android:colorPrimary" d="M24.131,191.996 L37.452,165.767c0,0 10.052,0.037 18.94,-4.572 12.269,-6.364 18.713,-14.399 21.128,-20.09 2.874,-6.773 0.166,-11.11 0.166,-11.11 -2.094,-5.037 -13.19,-8.505 -13.19,-8.505 0,0 8.83,-0.186 16.651,4.285 4.201,2.402 8.18,4.682 8.322,14.046 0.122,8.064 -3.647,17.706 -13.297,26.878 -12.451,11.834 -25.647,16.776 -32.419,19.722 -9.532,4.147 -19.622,5.576 -19.622,5.576z" id="path_1"/><path fill="?android:colorPrimary" d="m185.892,17.928 l-13.571,21.485c0,0 -10.241,-0.03 -19.295,3.745 -12.499,5.213 -19.063,11.795 -21.524,16.457 -2.928,5.548 -0.169,9.1 -0.169,9.1 2.134,4.126 13.437,6.967 13.437,6.967 0,0 -8.996,0.152 -16.963,-3.51 -4.279,-1.967 -8.334,-3.836 -8.478,-11.506 -0.124,-6.605 3.716,-14.504 13.547,-22.016 12.685,-9.694 26.128,-13.742 33.026,-16.155 9.711,-3.397 19.989,-4.567 19.989,-4.567z" id="path_2"/><path fill="?android:colorPrimary" d="m95.037,125.537 l13.571,-21.485c0,0 10.241,0.031 19.295,-3.745 12.499,-5.213 19.063,-11.795 21.524,-16.457 2.928,-5.548 0.169,-9.1 0.169,-9.1 -2.134,-4.126 -13.437,-6.967 -13.437,-6.967 0,0 8.996,-0.152 16.963,3.51 4.279,1.967 8.334,3.836 8.478,11.506 0.124,6.605 -3.716,14.504 -13.547,22.016 -12.685,9.694 -26.128,13.742 -33.026,16.155 -9.711,3.397 -19.989,4.567 -19.989,4.567z" id="path_3"/></svg>