<?xml version="1.0" encoding="UTF-8" standalone="no"?>
<svg
   xmlns:dc="http://purl.org/dc/elements/1.1/"
   xmlns:cc="http://creativecommons.org/ns#"
   xmlns:rdf="http://www.w3.org/1999/02/22-rdf-syntax-ns#"
   xmlns:svg="http://www.w3.org/2000/svg"
   xmlns="http://www.w3.org/2000/svg"
   xmlns:sodipodi="http://sodipodi.sourceforge.net/DTD/sodipodi-0.dtd"
   xmlns:inkscape="http://www.inkscape.org/namespaces/inkscape"
   height="48"
   width="48"
   version="1.1"
   id="svg4"
   sodipodi:docname="remove_moderator_FILL0_wght400_GRAD0_opsz48.svg"
   inkscape:version="0.92.3 (2405546, 2018-03-11)">
  <metadata
     id="metadata10">
    <rdf:RDF>
      <cc:Work
         rdf:about="">
        <dc:format>image/svg+xml</dc:format>
        <dc:type
           rdf:resource="http://purl.org/dc/dcmitype/StillImage" />
        <dc:title></dc:title>
      </cc:Work>
    </rdf:RDF>
  </metadata>
  <defs
     id="defs8" />
  <sodipodi:namedview
     pagecolor="#ffffff"
     bordercolor="#666666"
     borderopacity="1"
     objecttolerance="10"
     gridtolerance="10"
     guidetolerance="10"
     inkscape:pageopacity="0"
     inkscape:pageshadow="2"
     inkscape:window-width="876"
     inkscape:window-height="480"
     id="namedview6"
     showgrid="false"
     inkscape:zoom="4.9166667"
     inkscape:cx="24"
     inkscape:cy="24"
     inkscape:window-x="312"
     inkscape:window-y="273"
     inkscape:window-maximized="0"
     inkscape:current-layer="svg4" />
  <path
     d="m37.15 33.25-2.25-2.3q1-1.75 1.55-4.475Q37 23.75 37 21.8V12L24 7.2l-9.4 3.45-2.3-2.3L24 3.95 40 9.9v11.9q0 2.95-.75 5.875t-2.1 5.575Zm3.35 11.9-7-6.9q-2.2 2.2-4.5 3.6t-5 2.1Q16.85 42 12.425 35.725 8 29.45 8 21.8v-9.15L2.75 7.4 4.9 5.25 42.65 43ZM21.3 26Zm3.65-5.05ZM24 40.85q2.1-.7 4.025-1.975Q29.95 37.6 31.4 36.1L11 15.65v6.15q0 6.5 3.65 11.825Q18.3 38.95 24 40.85Z"
     id="path2" />
</svg>
