<?xml version="1.0" encoding="UTF-8" standalone="no"?>
<svg
   xmlns:dc="http://purl.org/dc/elements/1.1/"
   xmlns:cc="http://creativecommons.org/ns#"
   xmlns:rdf="http://www.w3.org/1999/02/22-rdf-syntax-ns#"
   xmlns:svg="http://www.w3.org/2000/svg"
   xmlns="http://www.w3.org/2000/svg"
   xmlns:sodipodi="http://sodipodi.sourceforge.net/DTD/sodipodi-0.dtd"
   xmlns:inkscape="http://www.inkscape.org/namespaces/inkscape"
   height="48"
   width="48"
   version="1.1"
   id="svg4"
   sodipodi:docname="shield_FILL0_wght400_GRAD0_opsz48.svg"
   inkscape:version="0.92.3 (2405546, 2018-03-11)">
  <metadata
     id="metadata10">
    <rdf:RDF>
      <cc:Work
         rdf:about="">
        <dc:format>image/svg+xml</dc:format>
        <dc:type
           rdf:resource="http://purl.org/dc/dcmitype/StillImage" />
        <dc:title></dc:title>
      </cc:Work>
    </rdf:RDF>
  </metadata>
  <defs
     id="defs8" />
  <sodipodi:namedview
     pagecolor="#ffffff"
     bordercolor="#666666"
     borderopacity="1"
     objecttolerance="10"
     gridtolerance="10"
     guidetolerance="10"
     inkscape:pageopacity="0"
     inkscape:pageshadow="2"
     inkscape:window-width="1341"
     inkscape:window-height="837"
     id="namedview6"
     showgrid="false"
     inkscape:zoom="9.8333333"
     inkscape:cx="25.83261"
     inkscape:cy="20.400532"
     inkscape:window-x="0"
     inkscape:window-y="0"
     inkscape:window-maximized="0"
     inkscape:current-layer="svg4" />
  <path
     d="M24 43.95q-7-1.75-11.5-8.125T8 21.85V9.95l16-6 16 6v11.9q0 7.6-4.5 13.975T24 43.95Zm0-3.1q5.75-1.9 9.375-7.175T37 21.85v-9.8l-13-4.9-13 4.9v9.8q0 6.55 3.625 11.825Q18.25 38.95 24 40.85ZM24 24Z"
     id="path2" />
  <path
     inkscape:connector-curvature="0"
     d="m 24,37.291069 c 3.023685,-0.999131 5.488646,-2.885647 7.394883,-5.65955 1.906236,-2.773903 2.859354,-5.88304 2.859354,-9.327412 V 14.57399 L 24,10.708931 13.745763,14.57399 v 7.730117 c 0,3.444372 0.953118,6.553509 2.859354,9.327412 1.906237,2.773903 4.371198,4.660419 7.394883,5.65955 z"
     id="path2-8"
     sodipodi:nodetypes="csscccssc"
     style="stroke-width:0.78878748" />
</svg>
