<?xml version="1.0" encoding="UTF-8" standalone="no"?>
<!-- Created with Inkscape (http://www.inkscape.org/) -->

<svg
   xmlns:dc="http://purl.org/dc/elements/1.1/"
   xmlns:cc="http://creativecommons.org/ns#"
   xmlns:rdf="http://www.w3.org/1999/02/22-rdf-syntax-ns#"
   xmlns:svg="http://www.w3.org/2000/svg"
   xmlns="http://www.w3.org/2000/svg"
   xmlns:sodipodi="http://sodipodi.sourceforge.net/DTD/sodipodi-0.dtd"
   xmlns:inkscape="http://www.inkscape.org/namespaces/inkscape"
   width="210mm"
   height="210mm"
   viewBox="0 0 210 210"
   version="1.1"
   id="svg8"
   sodipodi:docname="ic_slide_right.svg"
   inkscape:version="0.92.3 (2405546, 2018-03-11)">
  <defs
     id="defs2" />
  <sodipodi:namedview
     id="base"
     pagecolor="#ffffff"
     bordercolor="#666666"
     borderopacity="1.0"
     inkscape:pageopacity="0.0"
     inkscape:pageshadow="2"
     inkscape:zoom="0.35355339"
     inkscape:cx="43.836979"
     inkscape:cy="467.18386"
     inkscape:document-units="mm"
     inkscape:current-layer="layer1"
     showgrid="false"
     inkscape:snap-bbox="true"
     inkscape:bbox-nodes="true"
     inkscape:snap-bbox-edge-midpoints="false"
     inkscape:snap-bbox-midpoints="true"
     inkscape:bbox-paths="true"
     inkscape:snap-smooth-nodes="true"
     inkscape:snap-intersection-paths="true"
     inkscape:object-paths="false"
     inkscape:snap-object-midpoints="true"
     inkscape:window-width="1920"
     inkscape:window-height="1017"
     inkscape:window-x="-8"
     inkscape:window-y="-8"
     inkscape:window-maximized="1"
     showguides="false"
     inkscape:snap-nodes="true"
     inkscape:lockguides="true" />
  <metadata
     id="metadata5">
    <rdf:RDF>
      <cc:Work
         rdf:about="">
        <dc:format>image/svg+xml</dc:format>
        <dc:type
           rdf:resource="http://purl.org/dc/dcmitype/StillImage" />
        <dc:title />
      </cc:Work>
    </rdf:RDF>
  </metadata>
  <g
     inkscape:label="レイヤー 1"
     inkscape:groupmode="layer"
     id="layer1"
     transform="translate(0,-87)">
    <path
       style="color:#000000;font-style:normal;font-variant:normal;font-weight:normal;font-stretch:normal;font-size:medium;line-height:normal;font-family:sans-serif;font-variant-ligatures:normal;font-variant-position:normal;font-variant-caps:normal;font-variant-numeric:normal;font-variant-alternates:normal;font-feature-settings:normal;text-indent:0;text-align:start;text-decoration:none;text-decoration-line:none;text-decoration-style:solid;text-decoration-color:#000000;letter-spacing:normal;word-spacing:normal;text-transform:none;writing-mode:lr-tb;direction:ltr;text-orientation:mixed;dominant-baseline:auto;baseline-shift:baseline;text-anchor:start;white-space:normal;shape-padding:0;clip-rule:nonzero;display:inline;overflow:visible;visibility:visible;opacity:1;isolation:auto;mix-blend-mode:normal;color-interpolation:sRGB;color-interpolation-filters:linearRGB;solid-color:#000000;solid-opacity:1;vector-effect:none;fill:#000000;fill-opacity:1;fill-rule:nonzero;stroke:none;stroke-width:10;stroke-linecap:round;stroke-linejoin:round;stroke-miterlimit:4;stroke-dasharray:none;stroke-dashoffset:0;stroke-opacity:1;paint-order:markers fill stroke;color-rendering:auto;image-rendering:auto;shape-rendering:auto;text-rendering:auto;enable-background:accumulate"
       d="m 97.614197,231.59869 c 0,6.82268 -1.15924,12.96323 -2.75781,16.94727 -0.79928,1.99202 -1.72173,3.41747 -2.36914,4.09766 -0.6474,0.68019 -0.73233,0.52929 -0.53711,0.52929 h -42.46094 c 0.19523,0 0.1103,0.1509 -0.53711,-0.52929 -0.6474,-0.68019 -1.56985,-2.10564 -2.36914,-4.09766 -1.59856,-3.98404 -2.75586,-10.12459 -2.75586,-16.94727 v -80.17773 c 0,-6.82267 1.1573,-12.96127 2.75586,-16.94531 0.79929,-1.99202 1.72174,-3.41942 2.36914,-4.09961 0.64741,-0.68019 0.73234,-0.5293 0.53711,-0.5293 h 42.46094 c -0.19522,0 -0.11029,-0.15089 0.53711,0.5293 0.64741,0.68019 1.56986,2.10759 2.36914,4.09961 1.59857,3.98404 2.75781,10.12264 2.75781,16.94531 V 181.509 c 0,0 0.04757,5.29167 5.000003,5.29167 4.95244,0 5,-5.29167 5,-5.29167 v -30.08804 c 0,-7.89941 -1.22057,-15.0474 -3.47656,-20.66992 -1.12799,-2.81126 -2.50061,-5.26739 -4.406253,-7.26953 -1.90563,-2.00214 -4.63246,-3.63477 -7.78125,-3.63477 h -42.46094 c -3.14878,0 -5.87366,1.63263 -7.77929,3.63477 -1.90564,2.00214 -3.28021,4.45827 -4.40821,7.26953 -2.25599,5.62252 -3.47461,12.77051 -3.47461,20.66992 v 80.17773 c 0,7.89941 1.21862,15.04741 3.47461,20.66993 1.128,2.81126 2.50257,5.26739 4.40821,7.26953 1.90563,2.00214 4.63051,3.63476 7.77929,3.63476 h 42.46094 c 3.14879,0 5.87562,-1.63262 7.78125,-3.63476 1.905643,-2.00214 3.278263,-4.45827 4.406253,-7.26953 2.25599,-5.62252 3.47656,-12.77036 3.47656,-20.66977 0,0 -0.14111,-5.29171 -5,-5.29175 -4.858892,-3e-5 -5.000003,5.29159 -5.000003,5.29159 z"
       id="rect874-0"
       inkscape:connector-curvature="0"
       sodipodi:nodetypes="cccccccssccccccsczcsccssccssccssccczc" />
    <path
       inkscape:connector-curvature="0"
       style="opacity:1;vector-effect:none;fill:#000000;fill-opacity:1;fill-rule:nonzero;stroke:none;stroke-width:7.74873734;stroke-linecap:round;stroke-linejoin:round;stroke-miterlimit:4;stroke-dasharray:none;stroke-dashoffset:0;stroke-opacity:1;paint-order:markers fill stroke"
       d="m 70.691227,153.90849 c -13.98624,0 -24.7897,4.80074 -24.7897,4.80074 l 7.53907,21.3434 c 0,0 6.95074,-1.53376 17.25063,-1.53376 10.29989,0 17.25063,1.53376 17.25063,1.53376 l 7.53907,-21.3434 c 0,0 -10.80346,-4.80074 -24.7897,-4.80074 z"
       id="rect886-5" />
    <path
       inkscape:connector-curvature="0"
       style="opacity:1;vector-effect:none;fill:#000000;fill-opacity:1;fill-rule:nonzero;stroke:none;stroke-width:6.10495043;stroke-linecap:round;stroke-linejoin:round;stroke-miterlimit:4;stroke-dasharray:none;stroke-dashoffset:0;stroke-opacity:1;paint-order:markers fill stroke"
       d="m 70.691227,241.57489 c -13.98624,0 -24.7897,-1.39246 -24.7897,-1.39246 l 7.53907,-13.24848 c 0,0 6.95074,0.42287 17.25063,0.42287 10.29989,0 17.25063,-0.42287 17.25063,-0.42287 l 7.53907,13.24848 c 0,0 -10.80346,1.39246 -24.7897,1.39246 z"
       id="rect886-2-0"
       sodipodi:nodetypes="sccsccs" />
    <path
       style="color:#000000;font-style:normal;font-variant:normal;font-weight:normal;font-stretch:normal;font-size:medium;line-height:normal;font-family:sans-serif;font-variant-ligatures:normal;font-variant-position:normal;font-variant-caps:normal;font-variant-numeric:normal;font-variant-alternates:normal;font-feature-settings:normal;text-indent:0;text-align:start;text-decoration:none;text-decoration-line:none;text-decoration-style:solid;text-decoration-color:#000000;letter-spacing:normal;word-spacing:normal;text-transform:none;writing-mode:lr-tb;direction:ltr;text-orientation:mixed;dominant-baseline:auto;baseline-shift:baseline;text-anchor:start;white-space:normal;shape-padding:0;clip-rule:nonzero;display:inline;overflow:visible;visibility:visible;opacity:1;isolation:auto;mix-blend-mode:normal;color-interpolation:sRGB;color-interpolation-filters:linearRGB;solid-color:#000000;solid-opacity:1;vector-effect:none;fill:#000000;fill-opacity:1;fill-rule:nonzero;stroke:none;stroke-width:12;stroke-linecap:round;stroke-linejoin:miter;stroke-miterlimit:4;stroke-dasharray:none;stroke-dashoffset:0;stroke-opacity:1;color-rendering:auto;image-rendering:auto;shape-rendering:auto;text-rendering:auto;enable-background:accumulate"
       d="m 121.38281,176.03125 a 6.0006,6.0006 0 0 0 -5.9082,6.08594 v 51.92969 a 6.0006,6.0006 0 1 0 12,0 v -51.92969 a 6.0006,6.0006 0 0 0 -6.0918,-6.08594 z"
       id="path1057"
       inkscape:connector-curvature="0" />
    <path
       style="opacity:1;vector-effect:none;fill:#000000;fill-opacity:1;fill-rule:nonzero;stroke:none;stroke-width:44.8768425;stroke-linecap:round;stroke-linejoin:round;stroke-miterlimit:4;stroke-dasharray:none;stroke-dashoffset:0;stroke-opacity:1;paint-order:markers fill stroke"
       d="M 588.24609 282.11719 L 510.64062 373.45898 L 554.23242 373.45898 L 554.23242 541.54297 L 510.64062 541.54297 L 588.24609 632.88281 L 665.84961 541.54297 L 622.26367 541.54297 L 622.26367 373.45898 L 665.84961 373.45898 L 588.24609 282.11719 z "
       transform="matrix(0.26458333,0,0,0.26458333,0,87)"
       id="path1059" />
  </g>
</svg>
