<?xml version="1.0" encoding="UTF-8" standalone="no"?>
<!-- Created with Inkscape (http://www.inkscape.org/) -->

<svg
   xmlns:dc="http://purl.org/dc/elements/1.1/"
   xmlns:cc="http://creativecommons.org/ns#"
   xmlns:rdf="http://www.w3.org/1999/02/22-rdf-syntax-ns#"
   xmlns:svg="http://www.w3.org/2000/svg"
   xmlns="http://www.w3.org/2000/svg"
   xmlns:sodipodi="http://sodipodi.sourceforge.net/DTD/sodipodi-0.dtd"
   xmlns:inkscape="http://www.inkscape.org/namespaces/inkscape"
   width="210mm"
   height="210mm"
   viewBox="0 0 210 210"
   version="1.1"
   id="svg8"
   sodipodi:docname="ic_trunk.svg"
   inkscape:version="0.92.3 (2405546, 2018-03-11)">
  <defs
     id="defs2" />
  <sodipodi:namedview
     id="base"
     pagecolor="#ffffff"
     bordercolor="#666666"
     borderopacity="1.0"
     inkscape:pageopacity="0.0"
     inkscape:pageshadow="2"
     inkscape:zoom="0.5"
     inkscape:cx="-490.27564"
     inkscape:cy="-52.170425"
     inkscape:document-units="mm"
     inkscape:current-layer="layer1"
     showgrid="false"
     inkscape:snap-bbox="true"
     inkscape:bbox-nodes="true"
     inkscape:snap-bbox-edge-midpoints="false"
     inkscape:snap-bbox-midpoints="true"
     inkscape:bbox-paths="true"
     inkscape:snap-smooth-nodes="true"
     inkscape:snap-intersection-paths="true"
     inkscape:object-paths="false"
     inkscape:snap-object-midpoints="true"
     inkscape:window-width="1920"
     inkscape:window-height="1017"
     inkscape:window-x="-8"
     inkscape:window-y="-8"
     inkscape:window-maximized="1"
     showguides="false"
     inkscape:snap-nodes="true"
     inkscape:lockguides="true" />
  <metadata
     id="metadata5">
    <rdf:RDF>
      <cc:Work
         rdf:about="">
        <dc:format>image/svg+xml</dc:format>
        <dc:type
           rdf:resource="http://purl.org/dc/dcmitype/StillImage" />
        <dc:title />
      </cc:Work>
    </rdf:RDF>
  </metadata>
  <g
     inkscape:label="レイヤー 1"
     inkscape:groupmode="layer"
     id="layer1"
     transform="translate(0,-87)">
    <path
       style="color:#000000;font-style:normal;font-variant:normal;font-weight:normal;font-stretch:normal;font-size:medium;line-height:normal;font-family:sans-serif;font-variant-ligatures:normal;font-variant-position:normal;font-variant-caps:normal;font-variant-numeric:normal;font-variant-alternates:normal;font-feature-settings:normal;text-indent:0;text-align:start;text-decoration:none;text-decoration-line:none;text-decoration-style:solid;text-decoration-color:#000000;letter-spacing:normal;word-spacing:normal;text-transform:none;writing-mode:lr-tb;direction:ltr;text-orientation:mixed;dominant-baseline:auto;baseline-shift:baseline;text-anchor:start;white-space:normal;shape-padding:0;clip-rule:nonzero;display:inline;overflow:visible;visibility:visible;opacity:1;isolation:auto;mix-blend-mode:normal;color-interpolation:sRGB;color-interpolation-filters:linearRGB;solid-color:#000000;solid-opacity:1;vector-effect:none;fill:#000000;fill-opacity:1;fill-rule:nonzero;stroke:none;stroke-width:0.31717551px;stroke-linecap:butt;stroke-linejoin:miter;stroke-miterlimit:4;stroke-dasharray:none;stroke-dashoffset:0;stroke-opacity:1;color-rendering:auto;image-rendering:auto;shape-rendering:auto;text-rendering:auto;enable-background:accumulate"
       d="m 86.876971,150.03059 c -2.822329,-0.002 -5.469168,-0.002 -7.758411,0.004 l -6.19e-4,6.1e-4 c -2.289239,0.006 -4.220394,0.0163 -5.611278,0.0328 -0.694415,0.008 -1.253383,0.0182 -1.656501,0.0297 -6.03e-4,1e-5 -0.0019,-2e-5 -0.0025,0 -0.198804,0.006 -0.357442,0.0121 -0.478244,0.0186 -0.0017,1e-4 -0.0052,-9e-5 -0.0068,0 -0.07984,0.005 -0.119661,0.0108 -0.167881,0.0167 -0.01187,10e-4 -0.04486,0.004 -0.05204,0.005 h -6.18e-4 c -0.0092,0.001 -0.02562,0.001 -0.03469,0.004 -0.08616,0.0209 -0.149018,0.0621 -0.242836,0.12389 -0.09382,0.0619 -0.207689,0.14527 -0.343194,0.25027 -0.27101,0.20999 -0.627087,0.50598 -1.05746,0.87658 -0.860744,0.74118 -2.018016,1.78096 -3.371227,3.01997 -2.706448,2.47804 -6.194944,5.75211 -9.6435,9.01658 -4.544208,4.30165 -8.212888,7.81522 -10.727595,10.22892 L 25.859711,152.68135 a 4.1961273,4.1961273 0 0 0 -3.046001,-1.31144 h -6.279702 v 8.39152 h 4.474528 l 16.784904,17.72838 c -2.063318,0.44219 -4.476326,0.96338 -7.073262,1.53879 -3.145575,0.69698 -6.394097,1.43563 -9.062424,2.08333 -2.668325,0.64769 -4.744255,1.19883 -5.594555,1.54313 l -0.05266,0.0211 -0.02726,0.0502 c -1.799708,3.31852 -2.751152,7.55058 -3.198395,11.18849 -0.223618,1.81894 -0.320664,3.48928 -0.332041,4.82267 -0.01139,1.33339 0.05802,2.31909 0.185842,2.81741 v 6.2e-4 l 6.22e-4,10e-4 c 0.650004,2.4124 3.219509,6.10005 5.914207,9.37156 1.347353,1.63575 2.725822,3.16185 3.912659,4.35806 1.186836,1.19621 2.167453,2.05815 2.779621,2.38625 l 0.01672,0.008 0.01858,0.005 c 3.577045,0.91953 8.059075,1.36938 11.973995,1.58463 a 16.017363,16.017363 0 0 0 -0.04027,0.79976 16.017363,16.017363 0 0 0 16.017364,16.01736 16.017363,16.017363 0 0 0 16.017364,-16.01736 16.017363,16.017363 0 0 0 -0.0223,-0.63497 h 70.141643 a 16.017364,16.017364 0 0 0 -0.0235,0.47638 16.017364,16.017364 0 0 0 16.01737,16.01736 16.017364,16.017364 0 0 0 16.01737,-16.01736 16.017364,16.017364 0 0 0 -0.0186,-0.5154 c 0.79037,-0.0482 3.78439,-0.23408 7.41585,-0.5433 2.07099,-0.17635 4.20775,-0.38319 5.96004,-0.60833 0.87613,-0.11256 1.65586,-0.22956 2.28528,-0.35001 0.62941,-0.12044 1.10316,-0.23987 1.39445,-0.37726 0.12486,-0.0589 0.22338,-0.16595 0.35248,-0.32214 0.1291,-0.1562 0.2777,-0.36308 0.4448,-0.61576 0.33422,-0.50534 0.74281,-1.19448 1.1987,-2.01703 0.9118,-1.6451 2.01305,-3.82134 3.07511,-6.09573 1.06207,-2.2744 2.08457,-4.6467 2.83785,-6.68546 0.75329,-2.03878 1.24271,-3.72693 1.22162,-4.70994 -0.0403,-1.8758 -0.58696,-4.29673 -1.28913,-6.32306 -0.35109,-1.01316 -0.74053,-1.9265 -1.12994,-2.62475 -0.3894,-0.69824 -0.75847,-1.19106 -1.17269,-1.34738 -0.48869,-0.1844 -1.58477,-0.47495 -3.15812,-0.85489 -1.57334,-0.37994 -3.61538,-0.84525 -5.96068,-1.3641 -4.69059,-1.03769 -10.59407,-2.28887 -16.381,-3.49636 -11.55017,-2.41003 -22.58935,-4.63576 -22.63468,-4.64489 l -26.27848,-26.27849 -0.0657,-6.2e-4 c 0,0 -11.83253,-0.0603 -23.790639,-0.0905 -2.989525,-0.007 -5.987345,-0.0129 -8.809674,-0.0155 z m -10.798215,9.12437 h 38.911614 l 20.07312,20.70685 H 68.565042 Z"
       id="path1154"
       inkscape:connector-curvature="0" />
  </g>
</svg>
